# xmcd
# 
# Track frame offsets:
#     151
#     12224
#     24141
#     35686
#     49365
#     59142
#     73697
#     83998
#     93681
#     106142
#     118107
#     131920
#     145657
#     159408
#     174017
#     184484
# 
# Disc length: 2645
# 
# Revision: 1
# Processed by: cddbd v1.5.2PL0 Copyright (c) Steve Scherf et al.
# Submitted via: BonkEnc v1.0.5
# 
DISCID=e00a5310
DTITLE=Willie Nelson - La Légende de la Country
DYEAR=2002
DGENRE=Country
TTITLE0=Night Life
TTITLE1=Is There Something on Your Mind
TTITLE2=Touch Me
TTITLE3=The Last Letter
TTITLE4=Half a Man
TTITLE5=Will You Remember
TTITLE6=Pride Wins Again
TTITLE7=Building Heartaches
TTITLE8=Pages
TTITLE9=I Hope So
TTITLE10=Everything But You
TTITLE11=A Moment Isn't Very Long
TTITLE12=You'll Always Have Someone
TTITLE13=Rainy Day Blues
TTITLE14=I'll Stay Around
TTITLE15=A New Way To Cry
EXTD=
EXTT0=
EXTT1=
EXTT2=
EXTT3=
EXTT4=
EXTT5=
EXTT6=
EXTT7=
EXTT8=
EXTT9=
EXTT10=
EXTT11=
EXTT12=
EXTT13=
EXTT14=
EXTT15=
PLAYORDER=
